<?xml version="1.0" encoding="utf-8"?>
<!-- Generator: Adobe Illustrator 24.0.1, SVG Export Plug-In . SVG Version: 6.00 Build 0)  -->
<svg version="1.1" id="Layer_1" xmlns="http://www.w3.org/2000/svg" xmlns:xlink="http://www.w3.org/1999/xlink" x="0px" y="0px"
	 viewBox="0 0 1031.8 728.5" style="enable-background:new 0 0 1031.8 728.5;" xml:space="preserve">
<style type="text/css">
	.st0{enable-background:new    ;}
	.st1{fill:#FEFEFE;}
	.st2{fill:#1DA0F1;}
</style>
<g>
	<g class="st0">
		<path d="M515.3,303.4c0.8,0,1.3,0.4,1.3,1.3v6c0,0.8-0.4,1.3-1.3,1.3h-36.2v118.9c0,0.8-0.4,1.3-1.3,1.3h-6
			c-0.8,0-1.2-0.4-1.2-1.3V311.9h-36.2c-0.8,0-1.3-0.4-1.3-1.3v-6c0-0.8,0.4-1.3,1.3-1.3H515.3z"/>
		<path d="M604.8,354.7c0.2-0.5,0.6-0.8,1.2-0.8h6.4c0.4,0,0.8,0.2,1.1,0.5c0.2,0.3,0.3,0.7,0.1,1.1l-26.6,75.7
			c-0.2,0.5-0.6,0.8-1.2,0.8h-4.6c-0.6,0-1-0.3-1.2-0.8l-21.6-65.1l-21.7,65.1c-0.2,0.5-0.6,0.8-1.2,0.8h-4.5c-0.6,0-1-0.3-1.2-0.8
			l-26.7-75.7c-0.1-0.4-0.1-0.8,0.2-1.1c0.2-0.4,0.6-0.5,1-0.5h6.4c0.6,0,1,0.3,1.2,0.8l21.8,62.6l20.3-62.6
			c0.2-0.5,0.6-0.8,1.2-0.8h6.4c0.6,0,1,0.3,1.2,0.8l20.4,62.6L604.8,354.7z"/>
		<path d="M632,420.7c-7.7-7.7-11.5-16.9-11.5-27.7c0-11,3.7-20.2,11-27.8c7.3-7.5,16.3-11.3,26.9-11.2c10.3,0.1,19.1,3.9,26.4,11.4
			c7.2,7.5,10.9,16.5,10.9,26.9v2c0,0.7-0.4,1.1-1.1,1.2l-64.5,5.7c1.8,6.5,5.4,11.9,10.8,16.1c5.5,4.3,11.7,6.4,18.7,6.4
			c5.3,0,10.2-1.3,14.8-3.9c4.5-2.5,8.2-6,11-10.4c0.4-0.7,1-0.9,1.7-0.4l5.2,3c0.7,0.5,0.9,1.1,0.4,1.8
			c-3.6,5.7-8.4,10.2-14.3,13.5c-5.9,3.3-12.2,4.9-19,4.9C648.8,432.1,639.6,428.3,632,420.7z M637.5,371.1
			c-5.6,5.8-8.4,13-8.4,21.6l57.9-5c-0.8-7.4-3.9-13.5-9.3-18.1c-5.3-4.7-11.9-7.1-19.6-7.1C649.9,362.5,643,365.3,637.5,371.1z"/>
		<path d="M725.4,420.7c-7.7-7.7-11.5-16.9-11.5-27.7c0-11,3.7-20.2,11-27.8c7.3-7.5,16.3-11.3,26.9-11.2
			c10.3,0.1,19.1,3.9,26.4,11.4c7.2,7.5,10.9,16.5,10.9,26.9v2c0,0.7-0.4,1.1-1.1,1.2l-64.5,5.7c1.8,6.5,5.4,11.9,10.8,16.1
			c5.5,4.3,11.7,6.4,18.7,6.4c5.3,0,10.2-1.3,14.8-3.9c4.5-2.5,8.2-6,11-10.4c0.4-0.7,1-0.9,1.7-0.4l5.2,3c0.7,0.5,0.9,1.1,0.4,1.8
			c-3.6,5.7-8.4,10.2-14.3,13.5c-5.9,3.3-12.2,4.9-19,4.9C742.2,432.1,733,428.3,725.4,420.7z M730.9,371.1
			c-5.6,5.8-8.4,13-8.4,21.6l57.9-5c-0.8-7.4-3.9-13.5-9.3-18.1c-5.3-4.7-11.9-7.1-19.6-7.1C743.3,362.5,736.4,365.3,730.9,371.1z"
			/>
		<path d="M840.4,426.4c0.5,0.7,0.4,1.3-0.3,1.7c-3.9,2.6-7.9,4-12,4c-2.8,0-5.5-0.6-7.9-1.9c-3.2-1.6-5.8-4.1-7.6-7.4
			c-1.8-3.4-2.7-7.2-2.7-11.4v-48.9H799c-0.8,0-1.3-0.4-1.3-1.3v-6c0-0.8,0.4-1.3,1.3-1.3h10.9l-0.1-22.2c0-0.8,0.4-1.3,1.3-1.3h6
			c0.8,0,1.3,0.4,1.3,1.3V354h12.3c0.8,0,1.3,0.4,1.3,1.3v6c0,0.8-0.4,1.3-1.3,1.3h-12.3v48.9c0,5.6,1.9,9.3,5.7,11.2
			c3.4,1.7,7.1,1.3,11.1-1.3c0.7-0.4,1.3-0.3,1.7,0.3L840.4,426.4z"/>
		<path d="M864,465.3c-0.2,0.5-0.5,0.8-1.1,0.8h-6.5c-0.5,0-0.8-0.2-1.1-0.5c-0.2-0.4-0.3-0.8-0.1-1.2l12.9-32.2l-31.9-76.9
			c-0.2-0.4-0.1-0.8,0.1-1.2c0.2-0.4,0.6-0.5,1-0.5h6.6c0.5,0,0.9,0.2,1.1,0.7l27.7,66.7l26.8-66.7c0.2-0.5,0.6-0.7,1.2-0.7h6.5
			c0.4,0,0.7,0.2,1,0.5s0.3,0.7,0.2,1.1L864,465.3z"/>
	</g>
	<g>
		<path class="st1" d="M302.9,450.4c-32,0-64,0-96,0c-0.8,0-0.9-0.2-0.9-0.9c0-52,0-104,0-155.9c0-0.8,0.2-0.9,0.9-0.9
			c64,0,128.1,0,192.1,0c0.8,0,0.9,0.2,0.9,0.9c0,52,0,104,0,155.9c0,0.8-0.2,0.9-0.9,0.9C367,450.4,335,450.4,302.9,450.4z
			 M398.7,312.2c-0.3,0.1-0.7,0.2-1,0.3c-5.1,2.2-10.4,3.8-15.9,4.8c-1.6,0.3-3.2,0.7-4.9,0.6c3.9-2.5,7.4-5.6,10.2-9.2
			c2.9-3.7,5.1-7.7,6.6-12.3c-0.6,0.3-0.8,0.5-1.1,0.6c-7.3,4.1-15,7.1-23.2,8.7c-0.5,0.1-0.8,0-1.2-0.3c-1-1.1-2.1-2.1-3.2-3
			c-11.7-9.8-29-11.8-42.7-4.9c-16.2,8.2-24.6,25.5-21.1,43.3c0.2,0.9,0,1-0.8,1c-6.7-0.4-13.3-1.3-19.8-3
			c-23.8-5.9-43.6-18.3-59.5-37c-0.3-0.4-0.6-0.8-1-1.1c-3.7,5.9-6.1,14.5-5.2,23.4c1.3,12.2,7.1,21.8,17.2,29c-0.7,0-1.3,0-1.9,0
			c-5.2-0.5-10.1-1.9-14.8-4.3c-1-0.5-1-0.5-1,0.6c0,2.5,0.2,5,0.8,7.4c3.8,15.9,13.7,25.9,29.4,30.4c0.4,0.1,0.8,0,1.1,0.4
			c-4.7,1.4-11.2,1.7-16.5,0.8c-0.8-0.1-0.9,0-0.7,0.8c4.5,13.9,18.4,25,33,26.2c1.1,0.1,2.2,0.2,3.6,0.3
			c-17.4,13.1-36.7,18.5-58.3,16.3c0.6,0.4,1,0.6,1.3,0.9c16.3,10.1,34.1,15.7,53.2,16.7c11,0.6,22-0.3,32.8-2.8
			c17.6-4.1,33.2-11.9,46.7-23.9c13.8-12.2,23.9-27,30.6-44c3.7-9.3,6.2-19,7.4-29c0.7-5.5,0.8-11.1,0.6-16.7c0-0.6,0.1-1.1,0.7-1.5
			c4.8-3.5,9.1-7.5,12.9-12C395.1,317.5,397.1,315.1,398.7,312.2c0.1,0.1,0.2,0,0.2,0C398.8,312.1,398.8,312.1,398.7,312.2z"/>
		<path class="st2" d="M398.8,312.3c-1.6,2.7-3.7,5.2-5.7,7.6c-3.9,4.5-8.2,8.5-12.9,12c-0.5,0.4-0.7,0.8-0.7,1.5
			c0.2,5.6,0,11.1-0.6,16.7c-1.2,10-3.7,19.7-7.4,29c-6.8,17.1-16.8,31.8-30.6,44c-13.5,11.9-29.1,19.8-46.7,23.9
			c-10.8,2.5-21.7,3.4-32.8,2.8c-19.1-1-36.9-6.6-53.2-16.7c-0.4-0.2-0.7-0.5-1.3-0.9c21.6,2.1,40.9-3.2,58.3-16.3
			c-1.4-0.1-2.5-0.2-3.6-0.3c-14.6-1.3-28.5-12.3-33-26.2c-0.3-0.8-0.1-0.9,0.7-0.8c5.3,1,11.8,0.6,16.5-0.8
			c-0.3-0.3-0.7-0.3-1.1-0.4c-15.7-4.4-25.6-14.5-29.4-30.4c-0.6-2.4-0.8-4.9-0.8-7.4c0-1.1,0-1.1,1-0.6c4.6,2.4,9.6,3.8,14.8,4.3
			c0.6,0.1,1.1,0,1.9,0c-10-7.2-15.9-16.8-17.2-29c-0.9-8.9,1.5-17.5,5.2-23.4c0.5,0.2,0.7,0.7,1,1.1c15.9,18.7,35.7,31,59.5,37
			c6.5,1.6,13.1,2.6,19.8,3c0.8,0,1-0.1,0.8-1c-3.5-17.8,4.9-35.1,21.1-43.3c13.6-6.9,31-4.9,42.7,4.9c1.1,0.9,2.2,1.9,3.2,3
			c0.3,0.4,0.6,0.4,1.2,0.3c8.2-1.7,15.9-4.6,23.2-8.7c0.3-0.2,0.6-0.3,1.1-0.6c-1.5,4.7-3.7,8.7-6.6,12.3
			c-2.9,3.7-6.3,6.7-10.2,9.2c1.7,0,3.3-0.3,4.9-0.6c5.5-1,10.7-2.6,15.9-4.8C398,312.4,398.4,312.3,398.8,312.3
			C398.7,312.3,398.8,312.3,398.8,312.3z"/>
		<path class="st2" d="M398.7,312.2c0.1-0.1,0.1-0.2,0.2,0C398.9,312.2,398.8,312.3,398.7,312.2
			C398.8,312.3,398.7,312.3,398.7,312.2z"/>
	</g>
</g>
</svg>
